<svg width="1226" height="609" viewBox="0 0 1226 609" fill="none" xmlns="http://www.w3.org/2000/svg">
<rect x="408" y="302.776" width="430" height="294" fill="white" stroke="black" stroke-width="4"/>
<rect x="836" y="328.776" width="340" height="268" fill="white" stroke="black" stroke-width="4"/>
<rect x="68" y="328.776" width="340" height="268" fill="white" stroke="black" stroke-width="4"/>
<path d="M70 349.776H411L436 385.776C438 394.443 432.5 415.809 419.5 415.776C404.5 415.738 400.251 396.276 400 385.776C400 397.276 398 415.738 383 415.776C370.825 415.807 365.157 400.328 364.161 389.221C364.611 399.761 364.399 415.81 348.5 415.776C333.671 415.744 330.847 401.8 330.631 391.377C329.99 401.799 326.512 415.738 312.737 415.738C297.296 415.738 294.212 399.131 294.005 387.985C293.808 398.443 290.462 415.738 276.5 415.738C262.722 415.738 258.466 400.552 258.417 388.778C257.785 400.557 253.4 415.773 241 415.738C224.6 415.692 222.333 395.109 222.5 385.776C222.295 397.276 221 415.776 205 415.776C189 415.776 188.877 397.276 188.5 385.776C188.833 395.943 185.435 415.776 170.5 415.776C155.412 415.776 153.145 397.797 152.995 388.221C152.928 400.072 151.912 415.776 136.5 415.776C114.841 415.776 117 395.776 117 385.776C116.008 395.776 116.2 415.776 99 415.776C84.2996 415.776 80.7691 401.532 80.1213 390.837C80.088 402.076 77.6857 417.153 61.5 415.776C42.7 414.176 42.6667 395.109 45 385.776L70 349.776Z" fill="#FF1A1A"/>
<path d="M70 349.776H411L436 385.776C438 394.443 432.5 415.809 419.5 415.776C404.5 415.738 400.251 396.276 400 385.776C400 397.276 398 415.738 383 415.776C369.5 415.81 364 396.776 364 385.776C364.445 395.776 366.263 415.814 348.5 415.776C330.737 415.738 330.199 395.738 330.737 385.738C330.963 395.738 329.237 415.738 312.737 415.738C296.237 415.738 293.848 396.776 294 385.776C294.247 395.776 291.5 415.738 276.5 415.738C261.5 415.738 257.786 397.738 258.5 385.738C258.5 397.738 254.5 415.776 241 415.738C224.6 415.692 222.333 395.109 222.5 385.776C222.295 397.276 221 415.776 205 415.776C189 415.776 188.877 397.276 188.5 385.776C188.833 395.943 185.435 415.776 170.5 415.776C154 415.776 152.833 394.276 153 385.776C153 397.776 153 415.776 136.5 415.776C114.841 415.776 117 395.776 117 385.776C116.008 395.776 116.2 415.776 99 415.776C81.8 415.776 79.8915 396.276 80 385.776C80.5045 396.776 80.3 417.376 61.5 415.776C42.7 414.176 42.6667 395.109 45 385.776L70 349.776Z" stroke="black" stroke-width="4"/>
<path d="M836.052 349.776H1177.05L1202.05 385.776C1204.05 394.443 1198.55 415.809 1185.55 415.776C1170.55 415.738 1166.3 396.276 1166.05 385.776C1166.05 397.276 1164.05 415.738 1149.05 415.776C1136.88 415.807 1131.21 400.328 1130.21 389.221C1130.66 399.761 1130.45 415.81 1114.55 415.776C1099.72 415.744 1096.9 401.8 1096.68 391.377C1096.04 401.799 1092.56 415.738 1078.79 415.738C1063.35 415.738 1060.26 399.131 1060.06 387.985C1059.86 398.443 1056.51 415.738 1042.55 415.738C1028.77 415.738 1024.52 400.552 1024.47 388.778C1023.84 400.557 1019.45 415.773 1007.05 415.738C990.652 415.692 988.385 395.109 988.552 385.776C988.346 397.276 987.052 415.776 971.052 415.776C955.052 415.776 954.929 397.276 954.552 385.776C954.885 395.943 951.486 415.776 936.552 415.776C921.463 415.776 919.197 397.797 919.047 388.221C918.98 400.072 917.964 415.776 902.552 415.776C880.893 415.776 883.052 395.776 883.052 385.776C882.06 395.776 882.252 415.776 865.052 415.776C850.351 415.776 846.821 401.532 846.173 390.837C846.14 402.076 843.737 417.153 827.552 415.776C808.752 414.176 808.718 395.109 811.052 385.776L836.052 349.776Z" fill="#FF281A"/>
<path d="M836.052 349.776H1177.05L1202.05 385.776C1204.05 394.443 1198.55 415.809 1185.55 415.776C1170.55 415.738 1166.3 396.276 1166.05 385.776C1166.05 397.276 1164.05 415.738 1149.05 415.776C1135.55 415.81 1130.05 396.776 1130.05 385.776C1130.5 395.776 1132.31 415.814 1114.55 415.776C1096.79 415.738 1096.25 395.738 1096.79 385.738C1097.01 395.738 1095.29 415.738 1078.79 415.738C1062.29 415.738 1059.9 396.776 1060.05 385.776C1060.3 395.776 1057.55 415.738 1042.55 415.738C1027.55 415.738 1023.84 397.738 1024.55 385.738C1024.55 397.738 1020.55 415.776 1007.05 415.738C990.652 415.692 988.385 395.109 988.552 385.776C988.346 397.276 987.052 415.776 971.052 415.776C955.052 415.776 954.929 397.276 954.552 385.776C954.885 395.943 951.486 415.776 936.552 415.776C920.052 415.776 918.885 394.276 919.052 385.776C919.052 397.776 919.052 415.776 902.552 415.776C880.893 415.776 883.052 395.776 883.052 385.776C882.06 395.776 882.252 415.776 865.052 415.776C847.852 415.776 845.943 396.276 846.052 385.776C846.556 396.776 846.352 417.376 827.552 415.776C808.752 414.176 808.718 395.109 811.052 385.776L836.052 349.776Z" stroke="black" stroke-width="4"/>
<rect x="378" y="174.776" width="494" height="128" fill="white" stroke="black" stroke-width="4"/>
<rect x="378" y="193.776" width="494" height="90" fill="#FF1A1A" stroke="black" stroke-width="4"/>
<rect x="94.8501" y="447" width="284" height="107.776" fill="#D0D0D0" stroke="black" stroke-width="4"/>
<path d="M185.85 447.345V552.868" stroke="black" stroke-width="4"/>
<path d="M284.85 447.345V552.868" stroke="black" stroke-width="4"/>
<rect x="865.85" y="447" width="284" height="107.776" fill="#D0D0D0" stroke="black" stroke-width="4"/>
<path d="M956.85 447.345V552.868" stroke="black" stroke-width="4"/>
<path d="M1055.85 447.345V552.868" stroke="black" stroke-width="4"/>
<path d="M522 404.776H723V596.776H522V404.776Z" fill="#D0D0D0" stroke="black" stroke-width="4"/>
<path d="M624 416.776V595.776" stroke="black" stroke-width="4"/>
<path d="M723.5 417.776H522.5L511.5 453.276C511.5 460.776 514 474.276 526.5 474.276C539 474.276 542.667 460.276 542.5 453.276C542.679 460.776 546.5 474.276 559.5 474.276C572.5 474.276 575.5 461.776 575.5 453.276C575.5 462.276 579.5 474.276 592 474.276C604.5 474.276 608.667 461.109 608.5 453.276C608.67 461.276 613 474.276 625 474.276C637 474.276 640.5 461.776 640.5 453.276C640.5 461.776 646.1 474.276 656.5 474.276C666.9 474.276 672.5 462.276 672.5 453.276C672.5 461.501 677.5 474.276 689.5 474.276C701.5 474.276 706.667 460.276 706.5 453.276C706.679 460.776 712.7 474.276 723.5 474.276C734.3 474.276 737.5 461.276 737.5 453.276L723.5 417.776Z" fill="#FF281A" stroke="black" stroke-width="4"/>
<rect x="470" y="331.776" width="310" height="36" fill="#D0D0D0" stroke="black" stroke-width="4"/>
<path d="M71.4048 568.276H26.4048C26.4048 579.276 22.4048 606.276 49.4048 606.276C74.4048 606.276 71.4048 583.276 71.4048 568.276Z" fill="white" stroke="black" stroke-width="4"/>
<path d="M32.4048 567.276C19.9048 557.609 -0.0952024 543.776 3.40481 536.776C7.35721 528.871 16.3668 530.891 21.7039 533.616C14.3279 529.46 2.25442 520.834 4.90479 514.776C7.7048 508.376 17.4048 511.609 19.9048 513.276C15.0715 505.776 3.8048 488.976 13.4048 487.776C23.0048 486.576 30.0715 498.276 32.4048 504.276C31.9048 494.609 31.9327 480.885 38.9048 479.276C45.4048 477.776 49.9048 485.275 53.4048 492.276C53.4048 492.276 46.4048 462.776 61.4048 462.776C70.4048 462.776 81.9048 479.275 70.4048 492.276C73.5714 490.442 84.2048 488.676 87.4048 496.276C91.0048 508.676 84.5714 513.776 80.9048 514.776C87.0714 513.276 98.9048 513.576 96.9048 526.776C94.9048 539.976 79.4048 543.775 72.4048 542.776C79.4048 543.775 95.4048 556.276 66.9048 567.276H32.4048Z" fill="#2152FF"/>
<path d="M32.4048 567.276C19.9048 557.609 -0.0952025 543.776 3.40481 536.776C7.672 528.242 17.8341 531.276 22.9048 534.276C15.7381 530.443 2.10479 521.176 4.90479 514.776C7.7048 508.376 17.4048 511.609 19.9048 513.276C15.0715 505.776 3.8048 488.976 13.4048 487.776C23.0048 486.576 30.0715 498.276 32.4048 504.276C31.9048 494.609 31.9327 480.885 38.9048 479.276C45.4048 477.776 49.9048 485.275 53.4048 492.276C53.4048 492.276 46.4048 462.776 61.4048 462.776C70.4048 462.776 81.9048 479.275 70.4048 492.276C73.5714 490.442 84.2048 488.676 87.4048 496.276C91.0048 508.676 84.5714 513.776 80.9048 514.776C87.0714 513.276 98.9048 513.576 96.9048 526.776C94.9048 539.976 79.4048 543.775 72.4048 542.776C79.4048 543.775 95.4048 556.276 66.9048 567.276H32.4048Z" stroke="black" stroke-width="4"/>
<path d="M1197.4 568.276H1152.4C1152.4 579.276 1148.4 606.276 1175.4 606.276C1200.4 606.276 1197.4 583.276 1197.4 568.276Z" fill="white" stroke="black" stroke-width="4"/>
<path d="M1158.4 567.276C1145.9 557.609 1125.9 543.776 1129.4 536.776C1133.36 528.871 1142.37 530.891 1147.7 533.616C1140.33 529.46 1128.25 520.834 1130.9 514.776C1133.7 508.376 1143.4 511.609 1145.9 513.276C1141.07 505.776 1129.8 488.976 1139.4 487.776C1149 486.576 1156.07 498.276 1158.4 504.276C1157.9 494.609 1157.93 480.885 1164.9 479.276C1171.4 477.776 1175.9 485.275 1179.4 492.276C1179.4 492.276 1172.4 462.776 1187.4 462.776C1196.4 462.776 1207.9 479.275 1196.4 492.276C1199.57 490.442 1210.2 488.676 1213.4 496.276C1217 508.676 1210.57 513.776 1206.9 514.776C1213.07 513.276 1224.9 513.576 1222.9 526.776C1220.9 539.976 1205.4 543.775 1198.4 542.776C1205.4 543.775 1221.4 556.276 1192.9 567.276H1158.4Z" fill="#2152FF"/>
<path d="M1158.4 567.276C1145.9 557.609 1125.9 543.776 1129.4 536.776C1133.67 528.242 1143.83 531.276 1148.9 534.276C1141.74 530.443 1128.1 521.176 1130.9 514.776C1133.7 508.376 1143.4 511.609 1145.9 513.276C1141.07 505.776 1129.8 488.976 1139.4 487.776C1149 486.576 1156.07 498.276 1158.4 504.276C1157.9 494.609 1157.93 480.885 1164.9 479.276C1171.4 477.776 1175.9 485.275 1179.4 492.276C1179.4 492.276 1172.4 462.776 1187.4 462.776C1196.4 462.776 1207.9 479.275 1196.4 492.276C1199.57 490.442 1210.2 488.676 1213.4 496.276C1217 508.676 1210.57 513.776 1206.9 514.776C1213.07 513.276 1224.9 513.576 1222.9 526.776C1220.9 539.976 1205.4 543.775 1198.4 542.776C1205.4 543.775 1221.4 556.276 1192.9 567.276H1158.4Z" stroke="black" stroke-width="4"/>
<path d="M465.475 141.936L472.503 138.792C472.503 138.792 472.503 138.792 472.503 138.792C479.288 135.758 484.518 132.836 488.097 130.007C491.697 127.162 494.201 123.964 495.396 120.378L495.717 119.414C495.718 119.411 495.72 119.408 495.721 119.404C496.336 117.617 496.647 115.788 496.647 113.924C496.647 110.578 495.593 107.569 493.506 104.971C491.432 102.336 488.535 100.371 484.938 99.0146C481.333 97.6554 477.232 97 472.671 97C465.242 97 458.937 98.5313 453.886 101.74L453.886 101.74L453.877 101.746C448.871 104.964 444.957 109.993 442.055 116.651L442.055 116.651L442.05 116.662L441.312 118.384L440.117 121.172H443.151H455.697H456.99L457.52 119.993L458.253 118.365C459.367 115.977 460.988 114.241 463.129 113.078C465.3 111.899 468.12 111.25 471.687 111.25C474.861 111.25 477.027 111.753 478.397 112.541L478.417 112.553L478.437 112.564C479.106 112.929 479.502 113.316 479.735 113.684C479.962 114.041 480.101 114.481 480.101 115.072C480.101 115.645 480.019 116.14 479.875 116.572L481.773 117.204L479.875 116.572L479.629 117.31C479.276 118.37 478.762 119.232 478.102 119.933L479.559 121.304L478.102 119.933C477.441 120.636 476.261 121.5 474.422 122.498L474.412 122.504L474.401 122.51C472.62 123.505 469.869 124.843 466.111 126.532L466.11 126.532L431.096 142.276L430.403 142.587L430.092 143.281L425.746 152.957L424.48 155.776H427.571H479.559H480.852L481.382 154.597L485.81 144.757L487.08 141.936H483.987H465.475ZM555.929 144.788H557.222L557.753 143.609L562.591 132.867L563.862 130.046H560.767H551.636L560.543 110.149L561.804 107.332H558.717H546.089H544.793L544.264 108.515L534.625 130.046H516.941C526.282 120.888 534.062 111.879 540.266 103.017L540.381 102.852L540.462 102.667L541.282 100.781L542.498 97.984H539.447H526.081H525.049L524.451 98.8262C520.616 104.228 516.428 109.442 511.887 114.469L511.879 114.478C507.392 119.506 502.08 124.874 495.938 130.581L495.642 130.856L495.476 131.225L490.638 141.967L489.367 144.788H492.461H528.079L524.42 152.959L523.159 155.776H526.245H538.873H540.169L540.699 154.593L545.089 144.788H555.929Z" fill="#FFB715" stroke="black" stroke-width="4"/>
<path d="M455 158.776V173.776H532V158.776" stroke="black" stroke-width="4"/>
<path d="M167.893 125.574C115.911 115.318 92.0622 142.031 99.2544 151.214C149.202 176.056 244.436 165.048 265.818 151.214C293.72 133.161 231.956 121.301 222.804 125.574C207.246 85.2837 179.181 95.3563 167.893 125.574Z" stroke="black" stroke-width="4"/>
<path d="M935.488 53.6575C1077.85 37.3802 1144.72 66.7299 1131.31 84.4805C1069.31 102.48 801.312 104.48 659.313 84.4805C595.312 75.4664 659.313 18.4805 731.312 42.4804C773.92 -21.4664 935.488 -3.51954 935.488 53.6575Z" stroke="black" stroke-width="4"/>
<path d="M993.397 178.162C964.397 188.453 960.73 222.829 975.397 234.162C1019.4 255.662 1122.4 246.162 1137.4 234.162C1168.48 209.292 1090.73 204.829 1079.4 210.162C1071.4 192.162 1043 160.562 993.397 178.162Z" stroke="black" stroke-width="4"/>
</svg>
