<svg width="474" height="370" viewBox="0 0 474 370" fill="none" xmlns="http://www.w3.org/2000/svg">
<path d="M88.6368 366.634L2.72412 198.921L385.27 2.95745L471.183 170.67L88.6368 366.634Z" stroke="black" stroke-width="4"/>
<path d="M110.895 142.87L193.952 305.008" stroke="black" stroke-width="4"/>
<path d="M46.7572 197.473L119.72 160.097L111.154 143.377L38.1919 180.752L46.7572 197.473Z" fill="#D9D9D9" stroke="black" stroke-width="4"/>
<path d="M55.3221 214.193L128.285 176.817L119.719 160.097L46.7568 197.473L55.3221 214.193Z" fill="#D9D9D9" stroke="black" stroke-width="4"/>
<path d="M63.8876 230.914L136.85 193.538L128.285 176.817L55.3223 214.193L63.8876 230.914Z" fill="#D9D9D9" stroke="black" stroke-width="4"/>
<path d="M72.453 247.635L145.415 210.259L136.85 193.538L63.8877 230.914L72.453 247.635Z" fill="#D9D9D9" stroke="black" stroke-width="4"/>
<path d="M81.2777 264.862L154.24 227.486L145.675 210.765L72.7124 248.141L81.2777 264.862Z" fill="#D9D9D9" stroke="black" stroke-width="4"/>
<path d="M89.8429 281.582L162.805 244.206L154.24 227.486L81.2776 264.862L89.8429 281.582Z" fill="#D9D9D9" stroke="black" stroke-width="4"/>
<path d="M98.4083 298.303L171.371 260.927L162.805 244.206L89.843 281.582L98.4083 298.303Z" fill="#D9D9D9" stroke="black" stroke-width="4"/>
<path d="M106.974 315.023L179.936 277.647L171.371 260.927L98.4082 298.303L106.974 315.023Z" fill="#D9D9D9" stroke="black" stroke-width="4"/>
<path d="M115.539 331.744L188.501 294.368L179.936 277.648L106.974 315.023L115.539 331.744Z" fill="#D9D9D9" stroke="black" stroke-width="4"/>
<path d="M124.104 348.464L197.066 311.088L188.501 294.368L115.539 331.744L124.104 348.464Z" fill="#D9D9D9" stroke="black" stroke-width="4"/>
<path d="M11.9435 204.432C17.3422 214.971 37.0558 203.508 46.2378 196.459L39.2298 182.779C27.8849 185.606 6.54474 193.893 11.9435 204.432Z" fill="#FF281A" stroke="black" stroke-width="4"/>
<path d="M20.4542 221.047C25.853 231.586 45.5666 220.123 54.7485 213.074L47.7405 199.393C36.3956 202.22 15.0555 210.508 20.4542 221.047Z" fill="#FF281A" stroke="black" stroke-width="4"/>
<path d="M29.2789 238.274C34.6777 248.813 54.3913 237.35 63.5732 230.301L56.5653 216.62C45.2203 219.447 23.8802 227.735 29.2789 238.274Z" fill="#FF281A" stroke="black" stroke-width="4"/>
<path d="M37.7899 254.888C43.1887 265.427 62.9023 253.964 72.0842 246.915L65.0762 233.235C53.7313 236.061 32.3912 244.349 37.7899 254.888Z" fill="#FF281A" stroke="black" stroke-width="4"/>
<path d="M46.4095 271.715C51.8083 282.254 71.5219 270.791 80.7039 263.742L73.6959 250.062C62.351 252.888 41.0108 261.176 46.4095 271.715Z" fill="#FF281A" stroke="black" stroke-width="4"/>
<path d="M54.9205 288.329C60.3193 298.868 80.0329 287.405 89.2148 280.356L82.2069 266.676C70.8619 269.502 49.5218 277.79 54.9205 288.329Z" fill="#FF281A" stroke="black" stroke-width="4"/>
<path d="M63.5402 305.156C68.9389 315.695 88.6525 304.232 97.8345 297.183L90.8265 283.503C79.4816 286.329 58.1414 294.617 63.5402 305.156Z" fill="#FF281A" stroke="black" stroke-width="4"/>
<path d="M72.0511 321.77C77.4499 332.309 97.1635 320.846 106.345 313.797L99.3375 300.117C87.9926 302.943 66.6524 311.231 72.0511 321.77Z" fill="#FF281A" stroke="black" stroke-width="4"/>
<path d="M80.6708 338.597C86.0695 349.136 105.783 337.673 114.965 330.624L107.957 316.943C96.6122 319.77 75.272 328.058 80.6708 338.597Z" fill="#FF281A" stroke="black" stroke-width="4"/>
<path d="M89.182 355.212C94.5807 365.751 114.294 354.288 123.476 347.239L116.468 333.558C105.123 336.385 83.7833 344.673 89.182 355.212Z" fill="#FF281A" stroke="black" stroke-width="4"/>
</svg>
