<svg width="199" height="200" viewBox="0 0 199 200" fill="none" xmlns="http://www.w3.org/2000/svg">
<path d="M76.078 5.22978C76.7586 1.88047 81.0546 0.872279 83.1542 3.56913L104.159 30.5495C106.893 34.0621 111.97 34.6668 115.453 31.8948L142.207 10.6033C144.882 8.47505 148.821 10.4641 148.695 13.8796L147.443 48.0492C147.28 52.4979 150.78 56.224 155.23 56.3395L189.411 57.2267C192.828 57.3154 194.567 61.371 192.275 63.907L169.352 89.2775C166.368 92.5806 166.654 97.6847 169.989 100.634L195.603 123.284C198.163 125.549 196.888 129.773 193.503 130.243L159.635 134.943C155.225 135.555 152.164 139.649 152.823 144.052L157.884 177.867C158.39 181.247 154.698 183.664 151.803 181.848L122.837 163.679C119.066 161.313 114.089 162.481 111.764 166.277L93.9054 195.435C92.1202 198.35 87.7385 197.828 86.688 194.576L76.178 162.039C74.8096 157.802 70.2464 155.498 66.0251 156.912L33.602 167.768C30.3611 168.854 27.34 165.637 28.6257 162.471L41.4891 130.79C43.1639 126.665 41.1494 121.967 37.0071 120.336L5.19092 107.812C2.01068 106.56 1.7638 102.154 4.78426 100.555L35.0021 84.5547C38.9363 82.4715 40.4132 77.5775 38.2882 73.6658L21.966 43.6205C20.3345 40.6173 22.9774 37.0836 26.3192 37.7999L59.7522 44.9666C64.105 45.8997 68.3823 43.1 69.2688 38.7374L76.078 5.22978Z" fill="#FFB715" stroke="black" stroke-width="4"/>
</svg>
