<svg width="375" height="375" viewBox="0 0 375 375" fill="none" xmlns="http://www.w3.org/2000/svg">
<path d="M178.934 25.5255L210.896 83.1739C213.054 87.0672 217.976 88.4496 221.846 86.2495L279.15 53.6739C282.121 51.9848 285.705 54.5591 285.053 57.9141L272.482 122.62C271.633 126.99 274.514 131.212 278.893 132.015L343.729 143.894C347.091 144.51 348.182 148.786 345.526 150.937L294.304 192.424C290.844 195.226 290.338 200.313 293.176 203.742L335.208 254.518C337.387 257.151 335.474 261.128 332.057 261.068L266.151 259.924C261.7 259.847 258.042 263.418 258.012 267.869L257.572 333.784C257.549 337.201 253.528 339.018 250.948 336.776L201.197 293.536C197.837 290.616 192.739 291 189.855 294.391L147.149 344.601C144.934 347.205 140.686 346.011 140.151 342.636L129.834 277.532C129.137 273.135 124.985 270.153 120.596 270.897L55.6063 281.909C52.2366 282.48 49.7492 278.835 51.5092 275.905L85.4532 219.401C87.7457 215.585 86.482 210.632 82.6417 208.38L25.7785 175.042C22.8301 173.313 23.2675 168.922 26.499 167.809L88.8217 146.343C93.0307 144.894 95.2466 140.287 93.7521 136.094L71.622 74.0038C70.4745 70.7845 73.6321 67.702 76.8229 68.9265L138.363 92.543C142.519 94.138 147.178 92.0334 148.728 87.8604L171.686 26.0719C172.876 22.8681 177.277 22.5364 178.934 25.5255Z" fill="#FF281A" stroke="black" stroke-width="4"/>
<path d="M120.78 162.835L118.313 170.713L97.425 164.172L99.8925 156.293L120.78 162.835ZM155.122 169.969C159.598 171.952 162.731 174.297 164.521 177.004C166.365 179.682 166.783 182.63 165.776 185.847L165.546 186.58C164.233 190.773 161.507 193.407 157.371 194.481C153.234 195.555 147.806 195.04 141.088 192.936C134.423 190.804 129.711 188.077 126.952 184.753C124.233 181.443 123.556 177.609 124.92 173.252L125.035 172.886L134.135 175.736L134.02 176.102C133.498 177.772 134.053 179.354 135.686 180.849C137.36 182.357 140.029 183.685 143.693 184.832C151.144 187.166 155.367 186.745 156.362 183.569L156.572 182.897C157.031 181.431 156.453 180.066 154.838 178.8C153.235 177.493 150.54 176.246 146.754 175.061L139.303 172.727L141.541 165.581L156.49 161.746L131.816 154.018L134.322 146.017L173.226 158.202L170.721 166.203L155.122 169.969ZM199.054 181.313C205.365 183.29 209.894 185.96 212.641 189.324C215.428 192.701 216.184 196.425 214.909 200.497L214.68 201.23C213.302 205.627 210.506 208.418 206.29 209.601C202.115 210.797 196.689 210.35 190.011 208.259C183.293 206.154 178.543 203.549 175.76 200.442C172.978 197.335 172.218 193.766 173.48 189.735L173.614 189.308L182.714 192.158L182.58 192.585C182.172 193.888 182.817 195.185 184.513 196.477C186.21 197.768 188.871 198.982 192.494 200.116C196.159 201.264 199.088 201.69 201.282 201.393C203.53 201.069 204.922 200.052 205.457 198.342L205.668 197.67C206.165 196.082 205.53 194.542 203.762 193.049C202.047 191.528 199.358 190.194 195.693 189.046C192.395 188.014 189.68 187.476 187.547 187.434C185.454 187.405 184.147 187.867 183.625 188.821L174.647 186.009L183.734 161.493L220.623 173.046L218.04 181.291L188.969 172.186L186.135 179.95C189.658 179.265 193.964 179.719 199.054 181.313ZM234.578 198.676C230.832 197.503 228.108 195.711 226.404 193.299C224.713 190.847 224.32 188.176 225.225 185.285L225.436 184.613C226.354 181.682 228.18 179.705 230.914 178.683C233.702 177.634 236.989 177.702 240.776 178.888C244.562 180.074 247.267 181.86 248.889 184.246C250.552 186.645 250.919 189.33 249.988 192.303L249.777 192.974C248.872 195.865 247.025 197.835 244.238 198.885C241.503 199.906 238.284 199.837 234.578 198.676ZM236.392 192.672C237.817 193.118 239.032 193.164 240.038 192.808C241.097 192.424 241.799 191.683 242.143 190.583L242.353 189.912C242.698 188.812 242.538 187.823 241.874 186.945C241.264 186.038 240.246 185.362 238.821 184.915C237.396 184.469 236.174 184.444 235.156 184.841C234.15 185.196 233.475 185.924 233.131 187.023L232.921 187.695C232.589 188.754 232.728 189.736 233.339 190.643C233.99 191.562 235.007 192.238 236.392 192.672ZM260.104 229.809C256.359 228.635 253.634 226.843 251.93 224.432C250.239 221.979 249.846 219.308 250.751 216.417L250.962 215.745C251.88 212.814 253.706 210.837 256.44 209.816C259.228 208.766 262.515 208.834 266.302 210.02C270.089 211.206 272.793 212.992 274.415 215.378C276.079 217.777 276.445 220.462 275.514 223.435L275.303 224.106C274.398 226.997 272.551 228.967 269.764 230.017C267.029 231.038 263.81 230.969 260.104 229.809ZM261.918 223.804C263.343 224.25 264.558 224.296 265.564 223.94C266.623 223.556 267.325 222.815 267.669 221.715L267.879 221.044C268.224 219.944 268.064 218.955 267.4 218.077C266.79 217.17 265.772 216.494 264.347 216.048C262.922 215.601 261.7 215.576 260.682 215.973C259.676 216.328 259.001 217.056 258.657 218.155L258.447 218.827C258.115 219.886 258.255 220.868 258.865 221.775C259.516 222.694 260.534 223.37 261.918 223.804ZM269.897 188.478L278.569 191.194L278.129 192.599L230.781 220.222L222.109 217.506L222.491 216.285L269.897 188.478Z" fill="white"/>
</svg>
