<svg width="213" height="213" viewBox="0 0 213 213" fill="none" xmlns="http://www.w3.org/2000/svg">
<path d="M103.612 19.8475L117.763 45.3706C119.921 49.2639 124.843 50.6463 128.713 48.4463L154.084 34.0238C157.055 32.3347 160.639 34.9091 159.987 38.2641L154.421 66.9118C153.572 71.2817 156.454 75.5042 160.832 76.3065L189.538 81.5661C192.9 82.1821 193.99 86.4579 191.335 88.609L168.657 106.977C165.197 109.779 164.69 114.865 167.529 118.295L186.138 140.775C188.317 143.408 186.404 147.385 182.987 147.325L153.808 146.819C149.357 146.741 145.699 150.312 145.669 154.764L145.474 183.947C145.452 187.364 141.43 189.181 138.851 186.939L116.824 167.795C113.464 164.875 108.366 165.259 105.482 168.65L86.5745 190.88C84.3601 193.483 80.1118 192.29 79.5768 188.914L75.0089 160.091C74.3121 155.694 70.1601 152.712 65.771 153.455L36.9978 158.331C33.6281 158.902 31.1407 155.257 32.9007 152.327L47.929 127.311C50.2214 123.495 48.9578 118.541 45.1175 116.29L19.942 101.53C16.9936 99.801 17.431 95.41 20.6625 94.297L48.255 84.7933C52.464 83.3436 54.68 78.7368 53.1855 74.5435L43.3876 47.0541C42.2402 43.8347 45.3977 40.7521 48.5886 41.9767L75.8346 52.4326C79.9907 54.0275 84.6495 51.923 86.1999 47.75L96.3643 20.3939C97.5547 17.1902 101.955 16.8584 103.612 19.8475Z" fill="white" stroke="black" stroke-width="4"/>
<path d="M86.2275 114.662L89.0184 119.655L66.6724 132.146L64.0181 127.398L71.9492 114.533C72.7488 113.23 73.3224 112.207 73.6702 111.463C74.0281 110.682 74.2143 110.059 74.2286 109.592C74.2532 109.09 74.1354 108.606 73.8752 108.14L73.6995 107.826C73.2311 106.988 72.466 106.576 71.4041 106.589C70.3524 106.566 69.0701 106.977 67.5571 107.823C65.9277 108.733 64.8334 109.727 64.2741 110.803C63.7251 111.843 63.7564 112.91 64.3679 114.004L64.7583 114.703L58.7877 118.04L58.3778 117.307C56.8035 114.49 56.5389 111.858 57.5841 109.41C58.6164 106.939 60.9364 104.695 64.5444 102.679C68.0127 100.74 71.0836 99.8942 73.7573 100.141C76.4179 100.365 78.4052 101.652 79.7194 104.003L79.9145 104.352C80.7993 105.935 81.0525 107.672 80.674 109.564C80.3059 111.42 79.2165 113.816 77.4059 116.752L74.7054 121.103L86.2275 114.662ZM105.329 111.134C102.792 112.552 100.292 113.354 97.8294 113.539C95.3899 113.711 93.1678 113.288 91.163 112.27C89.1685 111.216 87.5727 109.618 86.3757 107.477L85.2242 105.417C84.0272 103.275 83.5022 101.079 83.6491 98.8278C83.8194 96.5636 84.6168 94.4376 86.0413 92.4499C87.4892 90.4492 89.4817 88.7397 92.0189 87.3215C94.5561 85.9033 97.0444 85.1081 99.4839 84.936C101.923 84.7639 104.129 85.2115 106.1 86.2786C108.081 87.3095 109.677 88.9073 110.887 91.0721L112.039 93.1321C113.249 95.2969 113.78 97.5049 113.633 99.7561C113.497 101.971 112.716 104.072 111.291 106.06C109.854 108.024 107.866 109.716 105.329 111.134ZM102.109 105.373C106.532 102.901 107.813 100 105.952 96.6718L104.703 94.4372C103.779 92.7845 102.506 91.8463 100.884 91.6226C99.2624 91.3989 97.369 91.8921 95.2042 93.1021C93.0395 94.3121 91.6224 95.6847 90.9529 97.2198C90.2938 98.7186 90.4196 100.283 91.3303 101.912L92.5794 104.147C93.5032 105.799 94.7696 106.726 96.3785 106.926C97.9875 107.127 99.8977 106.609 102.109 105.373ZM120.47 86.5407C118.282 87.7638 116.274 88.2443 114.447 87.9823C112.608 87.697 111.226 86.728 110.302 85.0753L110.068 84.6563C109.118 82.9571 108.999 81.2673 109.709 79.5871C110.443 77.8939 111.915 76.4292 114.127 75.1932C116.338 73.9571 118.334 73.4831 120.114 73.7712C121.917 74.0462 123.294 75.0333 124.244 76.7326L124.478 77.1515C125.415 78.8275 125.528 80.5056 124.817 82.1858C124.107 83.8661 122.658 85.3177 120.47 86.5407ZM118.288 82.7195C118.963 82.3422 119.409 81.9098 119.625 81.4223C119.851 80.8985 119.822 80.3806 119.535 79.8685L119.34 79.5193C119.041 78.9839 118.615 78.6872 118.064 78.6291C117.522 78.5346 116.914 78.6761 116.239 79.0534C115.564 79.4307 115.113 79.8813 114.886 80.4051C114.683 80.9158 114.724 81.4273 115.011 81.9394L115.206 82.2885C115.492 82.8006 115.906 83.1039 116.448 83.1983C116.999 83.2565 117.613 83.0969 118.288 82.7195ZM145.588 88.3558C143.4 89.5789 141.393 90.0594 139.566 89.7973C137.726 89.512 136.344 88.543 135.421 86.8904L135.186 86.4714C134.237 84.7722 134.117 83.0824 134.827 81.4022C135.561 79.7089 137.034 78.2443 139.245 77.0082C141.456 75.7722 143.452 75.2982 145.232 75.5862C147.036 75.8613 148.412 76.8484 149.362 78.5476L149.596 78.9666C150.533 80.6426 150.646 82.3207 149.936 84.0009C149.225 85.6811 147.776 87.1328 145.588 88.3558ZM143.406 84.5346C144.081 84.1573 144.527 83.7249 144.743 83.2374C144.97 82.7136 144.94 82.1957 144.654 81.6836L144.459 81.3344C144.159 80.799 143.734 80.5023 143.182 80.4441C142.64 80.3497 142.032 80.4912 141.357 80.8685C140.682 81.2458 140.231 81.6964 140.005 82.2201C139.801 82.7309 139.843 83.2424 140.129 83.7545L140.324 84.1036C140.61 84.6157 141.024 84.919 141.566 85.0134C142.118 85.0715 142.731 84.9119 143.406 84.5346ZM130.204 66.5729L136.07 63.2941L136.597 64.2368L129.425 97.0695L123.559 100.348L123.091 99.5103L130.204 66.5729ZM89.3482 144.37L89.478 144.602L87.5873 145.659L82.8148 144.169L81.5836 149.015L79.6929 150.072L79.5631 149.839L81.1566 143.812L75.3002 142.057L75.1704 141.825L77.0445 140.777L81.7209 142.212L82.9985 137.449L84.7896 136.448L84.9194 136.68L83.3624 142.579L89.3482 144.37ZM100.547 136.565L101.335 137.974L100.241 138.586C99.6991 138.889 99.187 139.037 98.7047 139.031C98.2224 139.025 97.8013 138.869 97.4412 138.562C97.2647 139.285 96.9318 139.935 96.4424 140.513C95.953 141.092 95.2881 141.616 94.4478 142.085C93.2648 142.747 92.2383 143.052 91.3683 143.001C90.4922 142.94 89.8378 142.522 89.4052 141.748C89.0344 141.084 88.9865 140.415 89.2616 139.739C89.5366 139.062 90.1273 138.406 91.0336 137.769L95.2022 134.829C94.8229 134.228 94.3004 133.904 93.6347 133.855C92.969 133.806 92.1828 134.035 91.2762 134.542C90.4027 135.03 89.7896 135.569 89.4368 136.158C89.084 136.747 89.0466 137.29 89.3248 137.788L89.3618 137.854L87.7863 138.735L87.7492 138.668C87.4031 138.049 87.2796 137.4 87.3787 136.721C87.4827 136.024 87.8009 135.36 88.3332 134.729C88.8593 134.086 89.5646 133.518 90.4492 133.024C91.8534 132.239 93.1155 131.939 94.2355 132.126C95.3556 132.313 96.2277 132.964 96.8519 134.081L98.2796 136.635C98.4403 136.922 98.6554 137.1 98.925 137.167C99.1884 137.223 99.486 137.158 99.8177 136.972L100.547 136.565ZM93.6267 140.694C94.5223 140.194 95.2134 139.626 95.7002 138.991C96.1808 138.345 96.4196 137.682 96.4166 137.002L95.9253 136.123L92.0864 138.834C91.5424 139.211 91.1761 139.568 90.9875 139.906C90.81 140.237 90.8077 140.558 90.9808 140.867C91.3516 141.531 92.2335 141.473 93.6267 140.694ZM111.814 132.117L110.222 133.007L106.412 126.191L101.387 129L102.98 132.005C103.682 133.34 103.972 134.455 103.848 135.351C103.73 136.229 103.195 136.935 102.245 137.466L101.498 137.883L100.71 136.473L101.108 136.251C101.694 135.923 102.006 135.495 102.044 134.966C102.093 134.431 101.876 133.704 101.391 132.785L99.0987 128.45L107.225 123.907L111.814 132.117ZM123.435 125.6L121.843 126.49L120.341 123.803L117.886 125.175L116.114 129.714L114.057 130.863L113.946 130.664L115.598 126.454C114.589 126.96 113.687 127.138 112.892 126.987C112.09 126.826 111.467 126.347 111.022 125.551L110.92 125.368C110.444 124.517 110.37 123.695 110.696 122.903C111.027 122.094 111.724 121.393 112.785 120.8L118.855 117.407L123.435 125.6ZM119.581 122.443L118.042 119.69L113.68 122.128C112.453 122.814 112.08 123.588 112.562 124.451L112.664 124.633C113.14 125.484 113.992 125.567 115.219 124.881L119.581 122.443ZM131.978 115.383C132.512 115.273 132.978 115.303 133.377 115.471C133.781 115.623 134.1 115.909 134.335 116.329L134.428 116.495C134.83 117.213 134.86 117.929 134.518 118.643C134.188 119.35 133.514 119.987 132.497 120.556L126.261 124.042L121.672 115.832L127.693 112.467C128.71 111.898 129.603 111.653 130.372 111.731C131.146 111.792 131.731 112.176 132.126 112.884L132.219 113.049C132.646 113.812 132.565 114.59 131.978 115.383ZM123.95 116.17L125.193 118.392L129.554 115.954C130.074 115.663 130.423 115.352 130.6 115.021C130.783 114.672 130.778 114.327 130.586 113.984L130.494 113.818C130.315 113.497 130.04 113.331 129.671 113.32C129.296 113.298 128.843 113.435 128.312 113.731L123.95 116.17ZM132.675 117.213C132.489 116.882 132.209 116.705 131.834 116.682C131.458 116.66 131.011 116.794 130.491 117.084L125.897 119.652L127.158 121.908L131.752 119.34C132.272 119.05 132.62 118.739 132.798 118.407C132.969 118.065 132.959 117.722 132.767 117.379L132.675 117.213ZM135.039 108.361L136.93 111.744L142.834 108.444L140.943 105.06L142.535 104.17L147.124 112.38L145.532 113.27L143.622 109.853L137.718 113.154L139.628 116.57L138.036 117.46L133.447 109.251L135.039 108.361ZM154.347 108.604C153.34 109.166 152.374 109.489 151.448 109.571C150.516 109.643 149.677 109.48 148.933 109.083C148.183 108.675 147.573 108.051 147.103 107.211L146.946 106.929C146.47 106.078 146.255 105.226 146.301 104.373C146.346 103.52 146.647 102.721 147.202 101.975C147.751 101.219 148.529 100.559 149.535 99.9965C150.53 99.4403 151.489 99.1296 152.41 99.0644C153.336 98.9821 154.169 99.1478 154.908 99.5618C155.658 99.9695 156.272 100.599 156.747 101.45L156.905 101.732C157.375 102.573 157.587 103.419 157.541 104.272C157.5 105.107 157.205 105.904 156.656 106.66C156.111 107.4 155.342 108.048 154.347 108.604ZM153.514 107.154C154.531 106.585 155.195 105.903 155.504 105.106C155.813 104.309 155.733 103.49 155.263 102.65L155.106 102.368C154.63 101.517 153.971 101.014 153.131 100.86C152.284 100.695 151.352 100.897 150.335 101.465C149.295 102.046 148.621 102.735 148.312 103.532C148.014 104.322 148.106 105.149 148.588 106.011L148.745 106.293C149.215 107.134 149.87 107.631 150.711 107.785C151.563 107.933 152.497 107.722 153.514 107.154Z" fill="black"/>
</svg>
