<svg width="211" height="213" viewBox="0 0 211 213" fill="none" xmlns="http://www.w3.org/2000/svg">
<path d="M90.0219 5.69384C90.9972 2.41818 95.3658 1.79538 97.2176 4.66798L117.321 35.8536C119.733 39.5952 124.736 40.6481 128.451 38.1963L159.42 17.7606C162.273 15.8782 166.02 18.2092 165.592 21.6L160.947 58.412C160.389 62.8287 163.545 66.8508 167.967 67.3609L204.826 71.6128C208.222 72.0045 209.594 76.1985 207.086 78.521L179.865 103.735C176.6 106.76 176.431 111.869 179.491 115.102L204.994 142.052C207.343 144.535 205.698 148.63 202.285 148.797L165.225 150.615C160.779 150.833 157.366 154.638 157.631 159.082L159.845 196.12C160.048 199.532 156.156 201.611 153.434 199.545L123.876 177.116C120.33 174.425 115.269 175.147 112.616 178.721L90.5041 208.517C88.4673 211.261 84.1492 210.352 83.3916 207.02L75.1664 170.839C74.1795 166.498 69.8389 163.798 65.5087 164.831L29.4179 173.442C26.0935 174.235 23.3698 170.763 24.9317 167.723L41.8873 134.72C43.9216 130.76 42.3323 125.902 38.3511 123.91L5.16879 107.308C2.11226 105.778 2.2575 101.368 5.40803 100.043L39.6108 85.6601C43.7144 83.9344 45.62 79.1908 43.8506 75.1059L29.1032 41.0587C27.7448 37.9225 30.6909 34.6373 33.956 35.6475L69.402 46.6147C73.6548 47.9305 78.1637 45.5216 79.434 41.255L90.0219 5.69384Z" fill="#FFB715" stroke="black" stroke-width="4"/>
</svg>
