<svg width="1280" height="842" viewBox="0 0 1280 842" fill="none" xmlns="http://www.w3.org/2000/svg">
<path d="M672.622 226.473C659.928 226.473 648.719 224.247 638.993 219.796C629.432 215.181 622.013 208.916 616.738 201.004C611.628 193.091 609.073 184.189 609.073 174.298C609.073 170.012 609.567 165.561 610.556 160.945L611.793 155.011C615.584 137.702 623.579 124.432 635.778 115.2C647.977 105.968 663.967 101.353 683.749 101.353C696.113 101.353 706.993 103.578 716.389 108.029C725.95 112.48 733.368 118.662 738.644 126.575C743.919 134.487 746.556 143.472 746.556 153.527C746.556 157.154 745.979 161.687 744.825 167.127L743.589 173.062C740.127 189.876 732.297 202.982 720.098 212.378C707.899 221.775 692.074 226.473 672.622 226.473ZM672.622 224C691.579 224 706.91 219.467 718.615 210.4C730.319 201.333 737.737 188.887 740.869 173.062L742.353 167.127C743.342 162.676 743.836 158.225 743.836 153.775C743.836 144.213 741.364 135.641 736.418 128.058C731.473 120.475 724.467 114.541 715.4 110.255C706.333 105.968 695.783 103.825 683.749 103.825C664.297 103.825 648.719 108.359 637.015 117.425C625.31 126.327 617.81 138.856 614.513 155.011L613.029 160.945C612.04 165.396 611.545 169.682 611.545 173.804C611.545 183.53 614.018 192.184 618.964 199.767C624.074 207.35 631.245 213.285 640.476 217.571C649.708 221.857 660.423 224 672.622 224Z" fill="black"/>
<path d="M1273.77 656.249C1261.08 656.249 1249.87 654.023 1240.14 649.572C1230.58 644.956 1223.16 638.692 1217.89 630.78C1212.78 622.867 1210.22 613.965 1210.22 604.074C1210.22 599.788 1210.72 595.337 1211.71 590.721L1212.94 584.787C1216.73 567.478 1224.73 554.207 1236.93 544.976C1249.13 535.744 1265.12 531.129 1284.9 531.129C1297.26 531.129 1308.14 533.354 1317.54 537.805C1327.1 542.256 1334.52 548.438 1339.79 556.35C1345.07 564.263 1347.71 573.247 1347.71 583.303C1347.71 586.93 1347.13 591.463 1345.98 596.903L1344.74 602.838C1341.28 619.652 1333.45 632.758 1321.25 642.154C1309.05 651.55 1293.22 656.249 1273.77 656.249ZM1273.77 653.776C1292.73 653.776 1308.06 649.243 1319.76 640.176C1331.47 631.109 1338.89 618.663 1342.02 602.838L1343.5 596.903C1344.49 592.452 1344.99 588.001 1344.99 583.55C1344.99 573.989 1342.51 565.417 1337.57 557.834C1332.62 550.251 1325.62 544.316 1316.55 540.03C1307.48 535.744 1296.93 533.601 1284.9 533.601C1265.45 533.601 1249.87 538.135 1238.16 547.201C1226.46 556.103 1218.96 568.632 1215.66 584.787L1214.18 590.721C1213.19 595.172 1212.7 599.458 1212.7 603.58C1212.7 613.306 1215.17 621.96 1220.11 629.543C1225.22 637.126 1232.39 643.061 1241.63 647.347C1250.86 651.633 1261.57 653.776 1273.77 653.776Z" fill="black"/>
<path d="M1284 29H-45V838H1284V29Z" stroke="black" stroke-width="8"/>
<path d="M1193.15 26.7759L812.15 835.776M361.15 26.7759L182.15 835.776" stroke="black" stroke-width="2"/>
</svg>
