<svg width="1270" height="173" viewBox="0 0 1270 173" fill="none" xmlns="http://www.w3.org/2000/svg">
<path d="M117.896 75.2323H113.096V60.3523C112.2 60.7363 111.133 60.9283 109.896 60.9283H106.504V56.4483H109.672C110.867 56.4483 111.731 56.2776 112.264 55.9363C112.819 55.5736 113.096 55.0083 113.096 54.2403H117.896V75.2323ZM133.69 53.8243C136.058 53.8243 138.095 54.1656 139.802 54.8483C141.508 55.5096 142.81 56.4696 143.706 57.7283C144.623 58.9656 145.082 60.4376 145.082 62.1443V66.7843C145.082 69.579 144.09 71.755 142.106 73.3123C140.122 74.8483 137.327 75.6163 133.722 75.6163C130.436 75.6163 127.876 75.0083 126.042 73.7923C124.207 72.5763 123.29 70.8696 123.29 68.6723V68.4803H128.026V68.6723C128.026 69.5256 128.527 70.187 129.53 70.6563C130.532 71.1256 131.93 71.3603 133.722 71.3603C135.876 71.3603 137.508 70.9763 138.618 70.2083C139.748 69.4403 140.314 68.3203 140.314 66.8483V65.8883C138.628 67.0403 136.25 67.6163 133.178 67.6163C129.914 67.6163 127.386 67.0616 125.594 65.9523C123.823 64.8216 122.938 63.2216 122.938 61.1523V60.8323C122.938 58.6136 123.876 56.8963 125.754 55.6803C127.652 54.443 130.298 53.8243 133.69 53.8243ZM133.434 63.5203C135.076 63.5203 136.484 63.371 137.658 63.0723C138.852 62.7523 139.738 62.3043 140.314 61.7283C140.207 60.555 139.578 59.659 138.426 59.0403C137.274 58.4003 135.652 58.0803 133.562 58.0803C131.684 58.0803 130.244 58.3043 129.242 58.7523C128.26 59.2003 127.77 59.8616 127.77 60.7363V60.9923C127.77 61.8456 128.228 62.4856 129.146 62.9123C130.084 63.3176 131.514 63.5203 133.434 63.5203ZM159.87 75.6163C157.609 75.6163 155.614 75.211 153.886 74.4003C152.158 73.5896 150.814 72.459 149.854 71.0083C148.894 69.5363 148.414 67.851 148.414 65.9523V63.5523C148.414 61.6323 148.894 59.947 149.854 58.4963C150.814 57.0243 152.158 55.883 153.886 55.0723C155.614 54.2616 157.609 53.8563 159.87 53.8563C162.11 53.8563 164.083 54.2616 165.79 55.0723C167.518 55.883 168.851 57.0243 169.79 58.4963C170.75 59.947 171.23 61.6323 171.23 63.5523V65.9523C171.23 67.8723 170.761 69.5683 169.822 71.0403C168.883 72.491 167.55 73.6216 165.822 74.4323C164.115 75.2216 162.131 75.6163 159.87 75.6163ZM159.87 71.1683C162.003 71.1683 163.635 70.731 164.766 69.8563C165.897 68.9816 166.462 67.7123 166.462 66.0483V63.4883C166.462 61.8456 165.886 60.5763 164.734 59.6803C163.582 58.763 161.95 58.3043 159.838 58.3043C157.726 58.3043 156.083 58.763 154.91 59.6803C153.758 60.5763 153.182 61.8456 153.182 63.4883V66.0483C153.182 67.691 153.758 68.9603 154.91 69.8563C156.062 70.731 157.715 71.1683 159.87 71.1683ZM125 112.2H122.632V106.664H117.16L110.248 112.232H107.176V111.912L113.736 106.664H113.384C111.4 106.664 109.853 106.238 108.744 105.384C107.656 104.531 107.112 103.326 107.112 101.768V101.448C107.112 99.8696 107.656 98.643 108.744 97.7683C109.853 96.8936 111.4 96.4563 113.384 96.4563H125V112.2ZM122.632 104.648V98.5363H113.576C112.253 98.5363 111.251 98.7923 110.568 99.3043C109.885 99.795 109.544 100.51 109.544 101.448V101.768C109.544 102.707 109.885 103.422 110.568 103.912C111.251 104.403 112.253 104.648 113.576 104.648H122.632ZM144.899 104.232C145.816 104.552 146.531 105.011 147.043 105.608C147.555 106.206 147.811 106.888 147.811 107.656V107.88C147.811 109.438 147.064 110.611 145.571 111.4C144.078 112.19 141.87 112.584 138.947 112.584C135.896 112.584 133.592 112.051 132.035 110.984C130.478 109.918 129.699 108.318 129.699 106.184V105.96H132.067V106.184C132.067 107.635 132.632 108.723 133.763 109.448C134.915 110.152 136.654 110.504 138.979 110.504C141.176 110.504 142.787 110.291 143.811 109.864C144.856 109.416 145.379 108.723 145.379 107.784V107.528C145.379 106.803 145.048 106.259 144.387 105.896C143.747 105.512 142.808 105.32 141.571 105.32H136.035V103.24H141.219C142.456 103.24 143.384 103.059 144.003 102.696C144.643 102.312 144.963 101.747 144.963 101V100.744C144.963 99.0376 142.883 98.1843 138.723 98.1843C136.462 98.1843 134.787 98.547 133.699 99.2723C132.611 99.9763 132.067 101.064 132.067 102.536V102.76H129.699V102.536C129.699 100.446 130.478 98.8563 132.035 97.7683C133.592 96.659 135.864 96.1043 138.851 96.1043C141.624 96.1043 143.736 96.499 145.187 97.2883C146.659 98.0563 147.395 99.187 147.395 100.68V100.936C147.395 101.64 147.171 102.28 146.723 102.856C146.296 103.411 145.688 103.87 144.899 104.232ZM164.31 101.608C166.273 101.608 167.777 102.078 168.822 103.016C169.889 103.934 170.422 105.182 170.422 106.76V107.176C170.422 108.712 169.889 109.939 168.822 110.856C167.777 111.774 166.273 112.232 164.31 112.232H153.014V96.4563H155.382V101.608H164.31ZM175.35 96.4563V112.232H172.982V96.4563H175.35ZM167.99 106.76C167.99 105.8 167.67 105.054 167.03 104.52C166.411 103.987 165.451 103.72 164.15 103.72H155.382V110.152H164.15C165.451 110.152 166.411 109.886 167.03 109.352C167.67 108.819 167.99 108.094 167.99 107.176V106.76ZM199.329 111.88V112.232H196.641L188.961 105.32H183.873V112.232H181.505V96.4563H183.873V103.272H188.865L196.193 96.4563H198.913V96.8083L191.073 104.232L199.329 111.88ZM210.352 112.584C208.453 112.584 206.789 112.264 205.36 111.624C203.952 110.984 202.864 110.067 202.096 108.872C201.349 107.678 200.976 106.28 200.976 104.68V104.072C200.976 102.451 201.349 101.043 202.096 99.8483C202.864 98.6323 203.952 97.7043 205.36 97.0643C206.768 96.4243 208.432 96.1043 210.352 96.1043C212.229 96.1043 213.861 96.435 215.248 97.0963C216.656 97.7363 217.733 98.6536 218.48 99.8483C219.248 101.043 219.632 102.451 219.632 104.072V104.68C219.632 106.28 219.248 107.678 218.48 108.872C217.733 110.067 216.656 110.984 215.248 111.624C213.861 112.264 212.229 112.584 210.352 112.584ZM210.32 110.408C212.453 110.408 214.128 109.896 215.344 108.872C216.581 107.848 217.2 106.451 217.2 104.68V104.072C217.2 102.28 216.581 100.872 215.344 99.8483C214.128 98.803 212.453 98.2803 210.32 98.2803C208.144 98.2803 206.448 98.7923 205.232 99.8163C204.016 100.84 203.408 102.259 203.408 104.072V104.68C203.408 106.451 204.026 107.848 205.264 108.872C206.501 109.896 208.186 110.408 210.32 110.408ZM239.106 104.232C241.047 104.83 242.018 105.971 242.018 107.656V107.976C242.018 109.342 241.506 110.398 240.482 111.144C239.458 111.87 237.997 112.232 236.098 112.232H224.13V96.4563H235.682C237.581 96.4563 239.042 96.819 240.066 97.5443C241.111 98.2696 241.634 99.283 241.634 100.584V100.904C241.634 101.672 241.41 102.344 240.962 102.92C240.535 103.475 239.917 103.912 239.106 104.232ZM226.498 98.3123V103.336H235.586C236.738 103.336 237.623 103.134 238.242 102.728C238.882 102.302 239.202 101.704 239.202 100.936V100.616C239.202 99.8696 238.893 99.3043 238.274 98.9203C237.655 98.515 236.759 98.3123 235.586 98.3123H226.498ZM239.586 107.624C239.586 106.856 239.277 106.27 238.658 105.864C238.039 105.438 237.165 105.224 236.034 105.224H226.498V110.376H236.034C237.186 110.376 238.061 110.174 238.658 109.768C239.277 109.342 239.586 108.734 239.586 107.944V107.624Z" fill="black"/>
<path d="M429.84 43.328C432.272 43.6053 434.117 44.256 435.376 45.28C436.656 46.2827 437.296 47.6267 437.296 49.312V49.696C437.296 51.8933 436.389 53.5573 434.576 54.688C432.763 55.8187 430.096 56.384 426.576 56.384C423.077 56.3627 420.421 55.7653 418.608 54.592C416.816 53.4187 415.92 51.6907 415.92 49.408V49.216H420.688V49.408C420.688 50.2827 421.189 50.9547 422.192 51.424C423.216 51.8933 424.688 52.128 426.608 52.128C430.512 52.128 432.464 51.296 432.464 49.632V49.28C432.464 48.512 431.984 47.9467 431.024 47.584C430.064 47.2 428.592 47.008 426.608 47.008H422.704V43.264L429.264 39.2H416.336V35.008H436.72V39.2L429.84 43.328ZM434.832 77.224V77.576L425.552 94.952C424.869 96.2107 424.091 97.1067 423.216 97.64C422.363 98.1733 421.168 98.44 419.632 98.44H416.784V96.36H419.6C420.603 96.36 421.349 96.2107 421.84 95.912C422.352 95.6133 422.832 95.0267 423.28 94.152L423.792 93.192L415.472 77.576V77.224H417.936L425.168 90.888L432.368 77.224H434.832ZM448.089 76.872C449.966 76.872 451.609 77.2027 453.017 77.864C454.425 78.504 455.502 79.4213 456.249 80.616C457.017 81.8107 457.401 83.208 457.401 84.808V85.384C457.401 86.984 457.017 88.392 456.249 89.608C455.481 90.8027 454.393 91.7307 452.985 92.392C451.598 93.032 449.966 93.352 448.089 93.352C446.809 93.352 445.603 93.1387 444.473 92.712C443.363 92.2853 442.393 91.6773 441.561 90.888V98.44H439.193V77.224H441.401L441.497 79.432C442.307 78.6213 443.278 77.992 444.409 77.544C445.561 77.096 446.787 76.872 448.089 76.872ZM454.969 84.808C454.969 83.016 454.35 81.608 453.113 80.584C451.897 79.56 450.211 79.048 448.057 79.048C446.691 79.048 445.422 79.304 444.249 79.816C443.097 80.328 442.201 81.0213 441.561 81.896V88.296C442.201 89.1707 443.097 89.8747 444.249 90.408C445.422 90.92 446.691 91.176 448.057 91.176C450.211 91.176 451.897 90.664 453.113 89.64C454.35 88.616 454.969 87.1973 454.969 85.384V84.808ZM470.039 93.352C468.141 93.352 466.477 93.032 465.047 92.392C463.639 91.752 462.551 90.8347 461.783 89.64C461.037 88.4453 460.663 87.048 460.663 85.448V84.84C460.663 83.2187 461.037 81.8107 461.783 80.616C462.551 79.4 463.639 78.472 465.047 77.832C466.455 77.192 468.119 76.872 470.039 76.872C471.917 76.872 473.549 77.2027 474.935 77.864C476.343 78.504 477.421 79.4213 478.167 80.616C478.935 81.8107 479.319 83.2187 479.319 84.84V85.448C479.319 87.048 478.935 88.4453 478.167 89.64C477.421 90.8347 476.343 91.752 474.935 92.392C473.549 93.032 471.917 93.352 470.039 93.352ZM470.007 91.176C472.141 91.176 473.815 90.664 475.031 89.64C476.269 88.616 476.887 87.2187 476.887 85.448V84.84C476.887 83.048 476.269 81.64 475.031 80.616C473.815 79.5707 472.141 79.048 470.007 79.048C467.831 79.048 466.135 79.56 464.919 80.584C463.703 81.608 463.095 83.0267 463.095 84.84V85.448C463.095 87.2187 463.714 88.616 464.951 89.64C466.189 90.664 467.874 91.176 470.007 91.176ZM498.794 85C500.735 85.5973 501.706 86.7387 501.706 88.424V88.744C501.706 90.1093 501.194 91.1653 500.17 91.912C499.146 92.6373 497.684 93 495.786 93H483.818V77.224H495.37C497.268 77.224 498.73 77.5867 499.753 78.312C500.799 79.0373 501.322 80.0507 501.322 81.352V81.672C501.322 82.44 501.098 83.112 500.65 83.688C500.223 84.2427 499.604 84.68 498.794 85ZM486.186 79.08V84.104H495.274C496.426 84.104 497.311 83.9013 497.93 83.496C498.57 83.0693 498.89 82.472 498.89 81.704V81.384C498.89 80.6373 498.58 80.072 497.962 79.688C497.343 79.2827 496.447 79.08 495.274 79.08H486.186ZM499.274 88.392C499.274 87.624 498.964 87.0373 498.346 86.632C497.727 86.2053 496.852 85.992 495.722 85.992H486.186V91.144H495.722C496.874 91.144 497.748 90.9413 498.346 90.536C498.964 90.1093 499.274 89.5013 499.274 88.712V88.392ZM508.904 77.224V84.04H521.384V77.224H523.752V93H521.384V86.152H508.904V93H506.536V77.224H508.904ZM546.188 92.968H543.819V87.432H538.348L531.436 93H528.364V92.68L534.924 87.432H534.572C532.588 87.432 531.041 87.0053 529.932 86.152C528.844 85.2987 528.299 84.0933 528.299 82.536V82.216C528.299 80.6373 528.844 79.4107 529.932 78.536C531.041 77.6613 532.588 77.224 534.572 77.224H546.188V92.968ZM543.819 85.416V79.304H534.764C533.441 79.304 532.438 79.56 531.756 80.072C531.073 80.5627 530.732 81.2773 530.732 82.216V82.536C530.732 83.4747 531.073 84.1893 531.756 84.68C532.438 85.1707 533.441 85.416 534.764 85.416H543.819ZM419.248 114.224V121.04H431.728V114.224H434.096V130H431.728V123.152H419.248V130H416.88V114.224H419.248ZM459.347 127.92V130H457.395C456.35 130 455.486 129.776 454.803 129.328C454.121 128.88 453.673 128.251 453.459 127.44C451.667 129.381 449.107 130.352 445.779 130.352C443.518 130.352 441.79 129.979 440.595 129.232C439.401 128.464 438.803 127.365 438.803 125.936C438.803 123.376 440.723 121.893 444.563 121.488L453.331 120.56V120.528C453.331 119.077 452.819 117.979 451.795 117.232C450.771 116.485 449.267 116.112 447.283 116.112C445.47 116.112 444.009 116.453 442.899 117.136C441.79 117.819 441.235 118.715 441.235 119.824V120.016H438.899V119.824C438.899 118.672 439.251 117.648 439.955 116.752C440.659 115.835 441.641 115.131 442.899 114.64C444.179 114.128 445.651 113.872 447.315 113.872C449.961 113.872 452.019 114.459 453.491 115.632C454.963 116.805 455.699 118.448 455.699 120.56V125.904C455.699 126.544 455.891 127.045 456.275 127.408C456.659 127.749 457.214 127.92 457.939 127.92H459.347ZM445.747 128.272C447.518 128.272 449.065 127.984 450.387 127.408C451.71 126.811 452.691 125.979 453.331 124.912V122.512L445.043 123.376C443.721 123.525 442.739 123.813 442.099 124.24C441.481 124.645 441.171 125.211 441.171 125.936C441.171 127.493 442.697 128.272 445.747 128.272ZM480.142 129.648V130H477.454L469.774 123.088H464.686V130H462.318V114.224H464.686V121.04H469.678L477.006 114.224H479.726V114.576L471.886 122L480.142 129.648ZM501.31 130H498.942V116.336H488.222L488.062 122.736C487.998 125.253 487.54 127.099 486.686 128.272C485.854 129.424 484.564 130 482.814 130H481.502V127.888H482.302C483.497 127.888 484.361 127.483 484.894 126.672C485.449 125.861 485.748 124.507 485.79 122.608L485.982 114.224H501.31V130ZM515.196 130.352C513.297 130.352 511.633 130.032 510.204 129.392C508.796 128.752 507.708 127.835 506.94 126.64C506.193 125.445 505.82 124.048 505.82 122.448V121.84C505.82 120.219 506.193 118.811 506.94 117.616C507.708 116.4 508.796 115.472 510.204 114.832C511.612 114.192 513.276 113.872 515.196 113.872C517.073 113.872 518.705 114.203 520.092 114.864C521.5 115.504 522.577 116.421 523.324 117.616C524.092 118.811 524.476 120.219 524.476 121.84V122.448C524.476 124.048 524.092 125.445 523.324 126.64C522.577 127.835 521.5 128.752 520.092 129.392C518.705 130.032 517.073 130.352 515.196 130.352ZM515.164 128.176C517.297 128.176 518.972 127.664 520.188 126.64C521.425 125.616 522.044 124.219 522.044 122.448V121.84C522.044 120.048 521.425 118.64 520.188 117.616C518.972 116.571 517.297 116.048 515.164 116.048C512.988 116.048 511.292 116.56 510.076 117.584C508.86 118.608 508.252 120.027 508.252 121.84V122.448C508.252 124.219 508.87 125.616 510.108 126.64C511.345 127.664 513.03 128.176 515.164 128.176ZM531.342 114.224V121.04H543.822V114.224H546.19V130H543.822V123.152H531.342V130H528.974V114.224H531.342ZM571.441 127.92V130H569.489C568.444 130 567.58 129.776 566.897 129.328C566.214 128.88 565.766 128.251 565.553 127.44C563.761 129.381 561.201 130.352 557.873 130.352C555.612 130.352 553.884 129.979 552.689 129.232C551.494 128.464 550.897 127.365 550.897 125.936C550.897 123.376 552.817 121.893 556.657 121.488L565.425 120.56V120.528C565.425 119.077 564.913 117.979 563.889 117.232C562.865 116.485 561.361 116.112 559.377 116.112C557.564 116.112 556.102 116.453 554.993 117.136C553.884 117.819 553.329 118.715 553.329 119.824V120.016H550.993V119.824C550.993 118.672 551.345 117.648 552.049 116.752C552.753 115.835 553.734 115.131 554.993 114.64C556.273 114.128 557.745 113.872 559.409 113.872C562.054 113.872 564.113 114.459 565.585 115.632C567.057 116.805 567.793 118.448 567.793 120.56V125.904C567.793 126.544 567.985 127.045 568.369 127.408C568.753 127.749 569.308 127.92 570.033 127.92H571.441ZM557.841 128.272C559.612 128.272 561.158 127.984 562.481 127.408C563.804 126.811 564.785 125.979 565.425 124.912V122.512L557.137 123.376C555.814 123.525 554.833 123.813 554.193 124.24C553.574 124.645 553.265 125.211 553.265 125.936C553.265 127.493 554.79 128.272 557.841 128.272Z" fill="black"/>
<path d="M751.176 35.008V39.328C748.275 42.2933 746.013 45.1627 744.392 47.936C742.792 50.7093 741.992 53.1307 741.992 55.2V56H736.648V55.2C736.648 53.024 737.405 50.56 738.92 47.808C740.456 45.0347 742.621 42.208 745.416 39.328H730.664V35.008H751.176ZM739.976 93.352C738.099 93.352 736.456 93.032 735.048 92.392C733.64 91.752 732.552 90.8347 731.784 89.64C731.016 88.4453 730.632 87.0587 730.632 85.48V84.84C730.632 83.24 731.005 81.8427 731.752 80.648C732.52 79.432 733.608 78.504 735.016 77.864C736.424 77.2027 738.077 76.872 739.976 76.872C741.683 76.872 743.208 77.16 744.552 77.736C745.917 78.2907 746.984 79.08 747.752 80.104C748.52 81.1067 748.904 82.2373 748.904 83.496V83.656H746.472V83.496C746.472 82.6427 746.184 81.8853 745.608 81.224C745.053 80.5413 744.285 80.008 743.304 79.624C742.323 79.24 741.213 79.048 739.976 79.048C737.821 79.048 736.125 79.5707 734.888 80.616C733.672 81.64 733.064 83.0587 733.064 84.872V85.448C733.064 87.2187 733.672 88.616 734.888 89.64C736.125 90.664 737.821 91.176 739.976 91.176C741.213 91.176 742.323 90.984 743.304 90.6C744.307 90.216 745.085 89.6933 745.64 89.032C746.195 88.3707 746.472 87.6133 746.472 86.76V86.6H748.904V86.76C748.904 88.04 748.52 89.1813 747.752 90.184C747.005 91.1867 745.949 91.9653 744.584 92.52C743.24 93.0747 741.704 93.352 739.976 93.352ZM750.228 79.368V77.224H768.852V79.368H760.82V93H758.42V79.368H750.228ZM788.496 85.896H772.752C772.816 87.5387 773.446 88.8293 774.64 89.768C775.856 90.7067 777.488 91.176 779.536 91.176C781.414 91.176 782.939 90.8347 784.112 90.152C785.286 89.4693 785.904 88.5627 785.968 87.432H788.496C788.368 89.2667 787.504 90.7173 785.904 91.784C784.304 92.8293 782.182 93.352 779.536 93.352C777.659 93.352 776.027 93.032 774.64 92.392C773.254 91.752 772.176 90.8453 771.408 89.672C770.662 88.4773 770.288 87.08 770.288 85.48V84.776C770.288 83.176 770.662 81.7787 771.408 80.584C772.176 79.3893 773.254 78.472 774.64 77.832C776.027 77.192 777.659 76.872 779.536 76.872C781.35 76.872 782.928 77.192 784.272 77.832C785.638 78.4507 786.683 79.3467 787.408 80.52C788.134 81.6933 788.496 83.08 788.496 84.68V85.896ZM779.504 79.048C777.542 79.048 775.963 79.4853 774.768 80.36C773.595 81.2133 772.934 82.3973 772.784 83.912H786C785.872 82.3973 785.232 81.2133 784.08 80.36C782.928 79.4853 781.403 79.048 779.504 79.048ZM809.901 77.224V93H807.533V79.336H795.373V93H793.005V77.224H809.901ZM832.621 85.896H816.877C816.941 87.5387 817.571 88.8293 818.765 89.768C819.981 90.7067 821.613 91.176 823.661 91.176C825.539 91.176 827.064 90.8347 828.237 90.152C829.411 89.4693 830.029 88.5627 830.093 87.432H832.621C832.493 89.2667 831.629 90.7173 830.029 91.784C828.429 92.8293 826.307 93.352 823.661 93.352C821.784 93.352 820.152 93.032 818.765 92.392C817.379 91.752 816.301 90.8453 815.533 89.672C814.787 88.4773 814.413 87.08 814.413 85.48V84.776C814.413 83.176 814.787 81.7787 815.533 80.584C816.301 79.3893 817.379 78.472 818.765 77.832C820.152 77.192 821.784 76.872 823.661 76.872C825.475 76.872 827.053 77.192 828.397 77.832C829.763 78.4507 830.808 79.3467 831.533 80.52C832.259 81.6933 832.621 83.08 832.621 84.68V85.896ZM823.629 79.048C821.667 79.048 820.088 79.4853 818.893 80.36C817.72 81.2133 817.059 82.3973 816.909 83.912H830.125C829.997 82.3973 829.357 81.2133 828.205 80.36C827.053 79.4853 825.528 79.048 823.629 79.048ZM839.498 77.224V84.04H851.978V77.224H854.346V93H851.978V86.152H839.498V93H837.13V77.224H839.498ZM877.059 85.896H861.315C861.379 87.5387 862.008 88.8293 863.203 89.768C864.419 90.7067 866.051 91.176 868.099 91.176C869.976 91.176 871.501 90.8347 872.675 90.152C873.848 89.4693 874.467 88.5627 874.531 87.432H877.059C876.931 89.2667 876.067 90.7173 874.467 91.784C872.867 92.8293 870.744 93.352 868.099 93.352C866.221 93.352 864.589 93.032 863.203 92.392C861.816 91.752 860.739 90.8453 859.971 89.672C859.224 88.4773 858.851 87.08 858.851 85.48V84.776C858.851 83.176 859.224 81.7787 859.971 80.584C860.739 79.3893 861.816 78.472 863.203 77.832C864.589 77.192 866.221 76.872 868.099 76.872C869.912 76.872 871.491 77.192 872.835 77.832C874.2 78.4507 875.245 79.3467 875.971 80.52C876.696 81.6933 877.059 83.08 877.059 84.68V85.896ZM868.067 79.048C866.104 79.048 864.525 79.4853 863.331 80.36C862.157 81.2133 861.496 82.3973 861.347 83.912H874.563C874.435 82.3973 873.795 81.2133 872.643 80.36C871.491 79.4853 869.965 79.048 868.067 79.048ZM883.872 77.224V90.088L896.448 77.224H898.624V93H896.319V80.136L883.744 93H881.568V77.224H883.872ZM890.112 74.824C887.914 74.824 886.25 74.4827 885.12 73.8C883.989 73.096 883.424 72.0827 883.424 70.76V70.6H885.6V70.76C885.6 71.4213 885.984 71.9333 886.752 72.296C887.52 72.6373 888.64 72.808 890.112 72.808C891.541 72.808 892.629 72.6373 893.376 72.296C894.122 71.9333 894.496 71.4213 894.496 70.76V70.6H896.8V70.76C896.8 72.104 896.234 73.1173 895.104 73.8C893.973 74.4827 892.309 74.824 890.112 74.824ZM729.384 116.368V114.224H748.008V116.368H739.976V130H737.576V116.368H729.384ZM758.821 130.352C756.922 130.352 755.258 130.032 753.829 129.392C752.421 128.752 751.333 127.835 750.565 126.64C749.818 125.445 749.445 124.048 749.445 122.448V121.84C749.445 120.219 749.818 118.811 750.565 117.616C751.333 116.4 752.421 115.472 753.829 114.832C755.237 114.192 756.901 113.872 758.821 113.872C760.698 113.872 762.33 114.203 763.717 114.864C765.125 115.504 766.202 116.421 766.949 117.616C767.717 118.811 768.101 120.219 768.101 121.84V122.448C768.101 124.048 767.717 125.445 766.949 126.64C766.202 127.835 765.125 128.752 763.717 129.392C762.33 130.032 760.698 130.352 758.821 130.352ZM758.789 128.176C760.922 128.176 762.597 127.664 763.812 126.64C765.05 125.616 765.669 124.219 765.669 122.448V121.84C765.669 120.048 765.05 118.64 763.812 117.616C762.597 116.571 760.922 116.048 758.789 116.048C756.613 116.048 754.917 116.56 753.701 117.584C752.485 118.608 751.877 120.027 751.877 121.84V122.448C751.877 124.219 752.495 125.616 753.733 126.64C754.97 127.664 756.655 128.176 758.789 128.176ZM789.342 130H786.974V116.336H776.254L776.094 122.736C776.03 125.253 775.571 127.099 774.718 128.272C773.886 129.424 772.595 130 770.846 130H769.534V127.888H770.334C771.528 127.888 772.392 127.483 772.926 126.672C773.48 125.861 773.779 124.507 773.822 122.608L774.014 114.224H789.342V130ZM825.787 127.92V134.096H823.419V130H795.099V114.224H797.467V127.92H807.675V114.224H810.043V127.92H820.219V114.224H822.587V127.92H825.787ZM831.809 114.224V127.088L844.385 114.224H846.561V130H844.257V117.136L831.681 130H829.505V114.224H831.809ZM854.686 114.224V121.04H867.166V114.224H869.534V130H867.166V123.152H854.686V130H852.318V114.224H854.686ZM886.966 119.376C888.929 119.376 890.433 119.845 891.478 120.784C892.545 121.701 893.078 122.949 893.078 124.528V124.944C893.078 126.48 892.545 127.707 891.478 128.624C890.433 129.541 888.929 130 886.966 130H875.67V114.224H878.038V119.376H886.966ZM898.006 114.224V130H895.638V114.224H898.006ZM890.646 124.528C890.646 123.568 890.326 122.821 889.686 122.288C889.068 121.755 888.108 121.488 886.806 121.488H878.038V127.92H886.806C888.108 127.92 889.068 127.653 889.686 127.12C890.326 126.587 890.646 125.861 890.646 124.944V124.528Z" fill="black"/>
<path d="M10 3H1270V170H10L37.5625 154.095L10 139.516L37.5625 122.286L10 106.381L37.5625 87.8254L10 70.5952L37.5625 54.6905L10 37.4603L37.5625 20.2302L10 3Z" stroke="black" stroke-width="5"/>
</svg>
