<svg width="1220" height="577" viewBox="0 0 1220 577" fill="none" xmlns="http://www.w3.org/2000/svg">
<path d="M1218.34 33.6203L1164.74 63.5V57.6934L1206.86 33.3737L1164.74 6.5V0L1218.34 33.6203Z" fill="black"/>
<path d="M1218.34 33.6203L1164.74 63.5V57.6934L1206.86 33.3737L1164.74 6.5V0L1218.34 33.6203Z" stroke="black"/>
<path d="M1218.89 90.1762L1164.7 120.5V114.5L1207.41 89.9296L1164.7 63.5L1167.61 58.5L1218.89 90.1762Z" fill="black"/>
<path d="M1218.89 90.1762L1164.7 120.5V114.5L1207.41 89.9296L1164.7 63.5L1167.61 58.5L1218.89 90.1762Z" stroke="black"/>
<path d="M1218.89 147.176L1165.29 177.056V171.249L1207.41 146.93L1165.19 120.112L1167.61 115L1218.89 147.176Z" fill="black"/>
<path d="M1218.89 147.176L1165.29 177.056V171.249L1207.41 146.93L1165.19 120.112L1167.61 115L1218.89 147.176Z" stroke="black"/>
<path d="M1219.45 203.732L1164.7 234.5V228.5L1207.97 203.486L1165.26 177.056L1168.16 172.056L1219.45 203.732Z" fill="black"/>
<path d="M1219.45 203.732L1164.7 234.5V228.5L1207.97 203.486L1165.26 177.056L1168.16 172.056L1219.45 203.732Z" stroke="black"/>
<path d="M1218.89 489.176L1165.29 519.056V513.249L1207.41 488.93L1165.19 462.112L1168.23 457L1218.89 489.176Z" fill="black"/>
<path d="M1218.89 489.176L1165.29 519.056V513.249L1207.41 488.93L1165.19 462.112L1168.23 457L1218.89 489.176Z" stroke="black"/>
<path d="M1219.45 545.732L1165.67 576.2V569.8L1207.97 545.486L1165.26 519.056L1168.16 514.056L1219.45 545.732Z" fill="black"/>
<path d="M1219.45 545.732L1165.67 576.2V569.8L1207.97 545.486L1165.26 519.056L1168.16 514.056L1219.45 545.732Z" stroke="black"/>
<path d="M1218.89 261.176L1165.29 291.056V285.249L1207.41 260.93L1165.19 234.112L1168.23 229L1218.89 261.176Z" fill="black"/>
<path d="M1218.89 261.176L1165.29 291.056V285.249L1207.41 260.93L1165.19 234.112L1168.23 229L1218.89 261.176Z" stroke="black"/>
<path d="M1219.45 317.732L1165.26 348.056V342.056L1207.97 317.486L1165.26 291.056L1168.16 286.056L1219.45 317.732Z" fill="black"/>
<path d="M1219.45 317.732L1165.26 348.056V342.056L1207.97 317.486L1165.26 291.056L1168.16 286.056L1219.45 317.732Z" stroke="black"/>
<path d="M1219.45 374.732L1165.84 404.612V398.805L1207.97 374.486L1165.74 347.668L1168.16 342.556L1219.45 374.732Z" fill="black"/>
<path d="M1219.45 374.732L1165.84 404.612V398.805L1207.97 374.486L1165.74 347.668L1168.16 342.556L1219.45 374.732Z" stroke="black"/>
<path d="M1220 431.288L1165.26 462.056V456.056L1208.52 431.041L1165.81 404.612L1168.71 399.612L1220 431.288Z" fill="black"/>
<path d="M1220 431.288L1165.26 462.056V456.056L1208.52 431.041L1165.81 404.612L1168.71 399.612L1220 431.288Z" stroke="black"/>
<path d="M0 0.349976H1165.19V6.64998H6.09615V569.85H1165.67V576.15H0V0.349976Z" fill="black"/>
<path d="M0 0.349976H1165.19V6.64998H6.09615V569.85H1165.67V576.15H0V0.349976Z" stroke="black"/>
</svg>
